<svg width="160" height="30" viewBox="0 0 160 30" fill="none" xmlns="http://www.w3.org/2000/svg">
<path d="M112.673 30C112.142 30 111.563 29.9034 111.08 29.6618C109.15 28.7921 108.282 26.4729 109.198 24.5402C111.129 20.3366 112.48 15.8432 113.155 11.3014C112.528 12.0744 111.949 12.9925 111.273 13.9588C110.887 14.5869 110.453 15.2633 109.97 15.8915C109.005 17.2927 107.268 17.8725 105.628 17.341C104.035 16.8095 102.925 15.3117 102.925 13.6206C102.925 12.6542 102.877 11.5429 102.829 10.48C102.829 10.0934 102.781 9.75521 102.781 9.36868C100.513 12.7509 98.8236 16.5196 96.99 20.4816C95.9284 22.8491 94.8185 25.265 93.5639 27.6325C92.5505 29.5168 90.2343 30.2416 88.3524 29.2753C86.4704 28.2606 85.7466 25.9414 86.7117 24.057C87.8698 21.8828 88.8832 19.6602 89.9448 17.2927C91.8267 13.1374 93.8051 8.88551 96.4592 4.92352C97.1347 3.95718 99.1132 0.961531 102.684 0.671629C104.566 0.526678 106.544 1.20312 108.04 2.55599C108.571 3.03916 109.005 3.57065 109.391 4.15045C109.777 3.86055 110.164 3.57065 110.598 3.32906C111.418 2.79757 113.927 1.25143 116.823 2.26609C119.911 3.32906 121.503 6.51798 120.973 10.7699C120.249 16.6645 118.656 22.4143 116.195 27.8258C115.52 29.1786 114.12 30 112.673 30Z" fill="#E65D48"/>
<path d="M136.366 9.61037C138.441 9.61037 140.564 9.61037 142.832 9.41711C144.955 9.27216 146.548 7.38779 146.403 5.26185C146.258 3.1359 144.376 1.54144 142.253 1.68639C140.323 1.83135 138.393 1.83135 136.366 1.83135C134.243 1.83135 132.023 1.83135 129.707 2.02461C127.97 2.16956 126.522 3.47412 126.184 5.21353C125.122 11.3981 123.627 17.5344 121.745 23.5257C121.359 24.6853 121.6 25.9415 122.275 26.9078C122.951 27.8742 124.109 28.5023 125.316 28.5506C127.246 28.5989 129.224 28.7439 131.106 28.8888C133.808 29.0821 136.655 29.2754 139.358 29.2754C139.695 29.2754 140.033 29.2754 140.323 29.2754C142.446 29.2271 144.135 27.4876 144.135 25.3617C144.087 23.2358 142.349 21.5447 140.226 21.5447C137.572 21.593 134.677 21.3997 131.685 21.2064C131.299 21.1581 130.961 21.1581 130.575 21.1098C130.72 20.53 130.913 19.9019 131.058 19.3221H138.2C140.323 19.3221 142.06 17.5827 142.06 15.4567C142.06 13.3308 140.323 11.5914 138.2 11.5914H132.843C132.988 10.9149 133.133 10.2385 133.229 9.56206C134.291 9.61037 135.304 9.61037 136.366 9.61037Z" fill="#38B57D"/>
<path d="M24.6079 0.623437C23.0155 0.720071 20.8923 0.768388 18.8173 0.768388C16.6941 0.816705 14.5226 0.816705 12.8337 0.913339C11.4343 0.961656 10.1797 1.78304 9.5524 3.03929C6.12631 9.90029 2.98975 17.0029 0.23923 24.2021C-0.484591 26.1831 0.480504 28.4057 2.5072 29.1788C2.9415 29.372 3.42404 29.4203 3.85834 29.4203C5.40249 29.4203 6.89839 28.454 7.47744 26.9079C8.49079 24.2504 9.5524 21.593 10.7105 18.9356C11.0483 19.0322 11.3861 19.0805 11.7721 19.0805C11.8204 19.0805 11.8204 19.0805 11.8686 19.0805L19.7824 18.9839C21.9056 18.9356 23.5945 17.1962 23.5463 15.0219C23.498 12.8959 21.8091 11.2532 19.6859 11.2532C19.6376 11.2532 19.6376 11.2532 19.5894 11.2532L14.0883 11.3498C14.5226 10.4318 14.9569 9.51376 15.4395 8.59573C16.5493 8.54742 17.7557 8.54742 18.9621 8.54742C21.0853 8.4991 23.2567 8.4991 24.9457 8.40247C27.0689 8.30583 28.7095 6.46979 28.613 4.34384C28.5165 2.16958 26.7311 0.526804 24.6079 0.623437Z" fill="#E65D48"/>
<path d="M35.61 29.1785C33.728 29.1785 31.9426 28.5021 30.5432 27.1975C28.034 24.8783 27.2136 21.1579 27.2619 18.4521C27.2619 17.4858 27.3584 16.4711 27.5514 15.3598C28.9025 6.9527 33.149 4.24695 36.4303 3.42556C40.0494 2.55586 43.5237 3.57051 45.5022 6.17963C48.1562 9.61013 47.2394 14.0553 46.8533 15.988C46.4673 17.824 45.84 19.6601 45.0196 21.4961C44.1993 23.2355 43.2825 25.0716 41.7383 26.5694C40.2424 28.0672 38.3605 28.9852 36.4303 29.1785C36.189 29.1785 35.8995 29.1785 35.61 29.1785ZM34.9826 18.5971C34.9344 19.8533 35.4169 21.0612 35.7065 21.3995C35.8512 21.3512 36.0925 21.2545 36.3338 21.0129C36.9611 20.3848 37.4919 19.3218 37.9744 18.2105C38.5535 16.906 38.9878 15.6014 39.2773 14.3452C39.7599 11.9293 39.6151 11.108 39.4221 10.8664C39.2773 10.8181 38.8913 10.7214 38.264 10.8664C36.7681 11.2529 35.7065 13.1373 35.1757 16.5195C35.0792 17.2925 34.9826 17.969 34.9826 18.5971Z" fill="#38B57D"/>
<path d="M51.0032 29.7585C50.6172 29.7585 50.2794 29.7101 49.8934 29.6135C47.8667 28.9854 46.7086 26.8594 47.2876 24.7818C49.2178 18.2107 52.7887 9.22375 56.1182 2.31443C57.9037 -1.35766 62.1983 0.285117 63.7907 0.913238L63.8872 0.961555C67.2168 2.12116 69.7261 4.87523 70.4981 8.16078C71.2702 11.4946 70.0639 15.0701 67.2651 18.0174C66.7343 18.5489 66.2035 19.0321 65.5762 19.4669L69.2918 22.9458C70.8359 24.3953 70.9324 26.8594 69.4848 28.4056C68.0372 29.9517 65.5762 30.0484 64.032 28.5988L56.5043 21.5446C55.8287 23.4773 55.2014 25.3616 54.7188 27.0044C54.188 28.6472 52.6439 29.7585 51.0032 29.7585ZM61.764 8.45068C60.992 10.1901 60.2199 11.9778 59.4478 13.8139C60.2681 13.6689 61.0885 13.2341 61.6675 12.6543C62.5844 11.6879 63.1152 10.5766 62.9221 9.85187C62.8256 9.32039 62.3913 8.7889 61.764 8.45068Z" fill="#F4D76D"/>
<path d="M153.496 22.3177C154.799 21.448 156.488 21.0614 157.502 21.158C162.713 21.6895 158.611 28.5022 155.668 29.3236C154.558 29.6618 153.303 29.2753 152.483 28.1157C150.553 25.4583 151.711 23.4773 153.496 22.3177Z" fill="#F4D76D"/>
</svg>
