<svg width="160" height="30" viewBox="0 0 160 30" fill="none" xmlns="http://www.w3.org/2000/svg">
<path d="M112.673 30C112.142 30 111.563 29.9034 111.08 29.6618C109.15 28.7921 108.281 26.4729 109.198 24.5402C111.128 20.3366 112.48 15.8432 113.155 11.3014C112.528 12.0744 111.949 12.9925 111.273 13.9588C110.887 14.5869 110.453 15.2634 109.97 15.8915C109.005 17.2927 107.268 17.8725 105.627 17.341C104.035 16.8095 102.925 15.3117 102.925 13.6206C102.925 12.6542 102.877 11.543 102.829 10.48C102.829 10.0935 102.78 9.75523 102.78 9.3687C100.512 12.7509 98.8235 16.5196 96.9898 20.4816C95.9282 22.8491 94.8184 25.265 93.5638 27.6325C92.5504 29.5168 90.2342 30.2416 88.3522 29.2753C86.4703 28.2606 85.7465 25.9414 86.7116 24.057C87.8697 21.8828 88.883 19.6602 89.9446 17.2927C91.8266 13.1374 93.805 8.88553 96.459 4.92354C97.1346 3.95721 99.1131 0.961561 102.684 0.67166C104.566 0.526709 106.544 1.20315 108.04 2.55602C108.571 3.03919 109.005 3.57067 109.391 4.15048C109.777 3.86057 110.163 3.57067 110.598 3.32909C111.418 2.7976 113.927 1.25146 116.823 2.26612C119.911 3.32909 121.503 6.518 120.972 10.7699C120.249 16.6645 118.656 22.4143 116.195 27.8257C115.52 29.1786 114.12 30 112.673 30Z" fill="#F3F1EC"/>
<path d="M136.718 9.04865C138.803 9.04865 140.936 9.04865 143.214 8.85257C145.348 8.7055 146.947 6.7937 146.802 4.6368C146.656 2.4799 144.766 0.86222 142.633 1.00928C140.693 1.15634 138.754 1.15634 136.718 1.15634C134.585 1.15634 132.355 1.15634 130.028 1.35243C128.282 1.49949 126.828 2.82304 126.489 4.58778C125.422 10.8624 123.919 17.088 122.028 23.1666C121.641 24.3431 121.883 25.6176 122.562 26.598C123.24 27.5784 124.404 28.2157 125.616 28.2647C127.555 28.3137 129.543 28.4608 131.434 28.6078C134.149 28.8039 137.009 29 139.724 29C140.063 29 140.403 29 140.693 29C142.827 28.951 144.523 27.1862 144.523 25.0293C144.475 22.8724 142.73 21.1567 140.596 21.1567C137.93 21.2057 135.021 21.0097 132.015 20.8136C131.628 20.7646 131.288 20.7646 130.9 20.7155C131.046 20.1273 131.24 19.49 131.385 18.9018H138.56C140.693 18.9018 142.439 17.137 142.439 14.9801C142.439 12.8232 140.693 11.0585 138.56 11.0585H133.179C133.324 10.3722 133.47 9.68591 133.567 8.99963C134.633 9.04865 135.651 9.04865 136.718 9.04865Z" fill="#F3F1EC"/>
<path d="M24.9051 0.00408069C23.2935 0.101382 21.1446 0.150033 19.0446 0.150033C16.8957 0.198684 14.698 0.198684 12.9887 0.295986C11.5724 0.344637 10.3027 1.1717 9.66777 2.43662C6.20031 9.34505 3.02586 16.4967 0.24212 23.7457C-0.490444 25.7404 0.486308 27.9783 2.53749 28.7567C2.97702 28.9513 3.4654 29 3.90494 29C5.46774 29 6.98171 28.027 7.56776 26.4702C8.59335 23.7944 9.66777 21.1186 10.8399 18.4428C11.1817 18.5401 11.5236 18.5887 11.9143 18.5887C11.9631 18.5887 11.9631 18.5887 12.012 18.5887L20.0213 18.4914C22.1702 18.4428 23.8795 16.6913 23.8307 14.502C23.7818 12.3614 22.0725 10.7073 19.9237 10.7073C19.8748 10.7073 19.8748 10.7073 19.826 10.7073L14.2585 10.8046C14.698 9.88021 15.1376 8.95584 15.626 8.03147C16.7492 7.98282 17.9702 7.98282 19.1911 7.98282C21.34 7.93417 23.5376 7.93417 25.247 7.83687C27.3958 7.73957 29.0563 5.89084 28.9586 3.7502C28.8609 1.56091 27.054 -0.093221 24.9051 0.00408069Z" fill="#F3F1EC"/>
<path d="M35.6098 29.1786C33.7279 29.1786 31.9425 28.5022 30.5431 27.1977C28.0338 24.8784 27.2135 21.158 27.2618 18.4523C27.2618 17.486 27.3583 16.4713 27.5513 15.36C28.9024 6.95288 33.1488 4.24713 36.4302 3.42575C40.0493 2.55604 43.5236 3.5707 45.5021 6.17981C48.1561 9.61031 47.2392 14.0555 46.8532 15.9881C46.4672 17.8242 45.8398 19.6602 45.0195 21.4963C44.1992 23.2357 43.2823 25.0717 41.7382 26.5695C40.2423 28.0674 38.3604 28.9854 36.4302 29.1786C36.1889 29.1786 35.8994 29.1786 35.6098 29.1786ZM34.9825 18.5972C34.9343 19.8535 35.4168 21.0614 35.7063 21.3996C35.8511 21.3513 36.0924 21.2547 36.3337 21.0131C36.961 20.385 37.4918 19.322 37.9743 18.2107C38.5534 16.9062 38.9877 15.6016 39.2772 14.3454C39.7597 11.9295 39.615 11.1081 39.422 10.8665C39.2772 10.8182 38.8912 10.7216 38.2638 10.8665C36.7679 11.2531 35.7063 13.1374 35.1755 16.5196C35.079 17.2927 34.9825 17.9691 34.9825 18.5972Z" fill="#F3F1EC"/>
<path d="M51.0033 29.7584C50.6173 29.7584 50.2795 29.7101 49.8935 29.6135C47.8668 28.9853 46.7087 26.8594 47.2877 24.7818C49.2179 18.2107 52.7888 9.22374 56.1184 2.31443C57.9038 -1.35766 62.1985 0.285117 63.7909 0.913236L63.8874 0.961553C67.2169 2.12116 69.7262 4.87522 70.4983 8.16077C71.2704 11.4946 70.064 15.0701 67.2652 18.0174C66.7344 18.5489 66.2036 19.0321 65.5763 19.4669L69.2919 22.9457C70.8361 24.3952 70.9326 26.8594 69.4849 28.4055C68.0373 29.9517 65.5763 30.0483 64.0321 28.5988L56.5044 21.5445C55.8288 23.4772 55.2015 25.3616 54.719 27.0044C54.1882 28.6471 52.644 29.7584 51.0033 29.7584ZM61.7642 8.45067C60.9921 10.1901 60.22 11.9778 59.4479 13.8138C60.2683 13.6689 61.0886 13.234 61.6677 12.6542C62.5845 11.6879 63.1153 10.5766 62.9223 9.85186C62.8258 9.32037 62.3915 8.78889 61.7642 8.45067Z" fill="#F3F1EC"/>
<path d="M153.496 22.3176C154.799 21.4479 156.488 21.0614 157.501 21.158C162.713 21.6895 158.611 28.5022 155.668 29.3236C154.558 29.6618 153.303 29.2753 152.483 28.1157C150.553 25.4582 151.711 23.4772 153.496 22.3176Z" fill="#F3F1EC"/>
</svg>
