<svg width="170" height="170" viewBox="0 0 170 170" fill="none" xmlns="http://www.w3.org/2000/svg">
<path fill-rule="evenodd" clip-rule="evenodd" d="M80 0.144562C35.3831 2.73265 0 39.7342 0 84.9999C0 130.266 35.3831 167.267 80 169.855V164.846C38.1464 162.265 5 127.503 5 84.9999C5 42.4964 38.1464 7.73464 80 5.15365V0.144562ZM90 164.846C131.854 162.265 165 127.503 165 84.9999C165 42.4964 131.854 7.73464 90 5.15365V0.144562C134.617 2.73265 170 39.7342 170 84.9999C170 130.266 134.617 167.267 90 169.855V164.846Z" fill="#38B57D"/>
<path d="M85 65L81.475 68.525L95.425 82.5H65V87.5H95.425L81.475 101.475L85 105L105 85L85 65Z" fill="#38B57D"/>
</svg>
